<?xml version="1.0" encoding="UTF-8" standalone="no"?>
<!-- Created with Inkscape (http://www.inkscape.org/) -->

<svg
   xmlns:dc="http://purl.org/dc/elements/1.1/"
   xmlns:cc="http://creativecommons.org/ns#"
   xmlns:rdf="http://www.w3.org/1999/02/22-rdf-syntax-ns#"
   xmlns:svg="http://www.w3.org/2000/svg"
   xmlns="http://www.w3.org/2000/svg"
   xmlns:xlink="http://www.w3.org/1999/xlink"
   xmlns:sodipodi="http://sodipodi.sourceforge.net/DTD/sodipodi-0.dtd"
   xmlns:inkscape="http://www.inkscape.org/namespaces/inkscape"
   width="48"
   height="48"
   viewBox="0 0 48 48"
   id="svg2"
   version="1.1"
   inkscape:version="0.91 r13725"
   sodipodi:docname="ryouribook_icon.svg">
  <sodipodi:namedview
     id="base"
     pagecolor="#ffffff"
     bordercolor="#666666"
     borderopacity="1.0"
     inkscape:pageopacity="0.0"
     inkscape:pageshadow="2"
     inkscape:zoom="5.6"
     inkscape:cx="59.815043"
     inkscape:cy="-1.9816421"
     inkscape:document-units="px"
     inkscape:current-layer="layer1"
     showgrid="true"
     units="px"
     inkscape:window-width="1366"
     inkscape:window-height="709"
     inkscape:window-x="-4"
     inkscape:window-y="0"
     inkscape:window-maximized="1"
     showguides="false">
    <inkscape:grid
       type="xygrid"
       id="grid4136" />
  </sodipodi:namedview>
  <defs
     id="defs4">
    <linearGradient
       id="linearGradient6978"
       inkscape:collect="always">
      <stop
         id="stop6980"
         offset="0"
         style="stop-color:#000000;stop-opacity:0" />
      <stop
         id="stop6982"
         offset="1"
         style="stop-color:#000000;stop-opacity:0.2" />
    </linearGradient>
    <linearGradient
       inkscape:collect="always"
       id="linearGradient6968">
      <stop
         style="stop-color:#000000;stop-opacity:0.2"
         offset="0"
         id="stop6970" />
      <stop
         style="stop-color:#000000;stop-opacity:1"
         offset="1"
         id="stop6972" />
    </linearGradient>
    <clipPath
       clipPathUnits="userSpaceOnUse"
       id="clipPath6906">
      <rect
         ry="1.0274504"
         y="1008.3621"
         x="4"
         height="40.071392"
         width="40.017857"
         id="rect6908"
         style="fill:#800000" />
    </clipPath>
    <clipPath
       clipPathUnits="userSpaceOnUse"
       id="clipPath6912">
      <rect
         ry="1.0274504"
         y="1008.3621"
         x="4"
         height="40.071392"
         width="40.017857"
         id="rect6914"
         style="fill:#800000" />
    </clipPath>
    <clipPath
       clipPathUnits="userSpaceOnUse"
       id="clipPath6964">
      <rect
         ry="1.0274504"
         y="1008.1835"
         x="-5.1071429"
         height="40.071392"
         width="40.017857"
         id="rect6966"
         style="fill:#800000" />
    </clipPath>
    <linearGradient
       inkscape:collect="always"
       xlink:href="#linearGradient6968"
       id="linearGradient6974"
       x1="10.892858"
       y1="1012.1835"
       x2="15.892858"
       y2="1017.1835"
       gradientUnits="userSpaceOnUse" />
    <linearGradient
       inkscape:collect="always"
       xlink:href="#linearGradient6978"
       id="linearGradient6976"
       gradientUnits="userSpaceOnUse"
       x1="30.892857"
       y1="27.821428"
       x2="10.892858"
       y2="7.8214288" />
  </defs>
  <metadata
     id="metadata7">
    <rdf:RDF>
      <cc:Work
         rdf:about="">
        <dc:format>image/svg+xml</dc:format>
        <dc:type
           rdf:resource="http://purl.org/dc/dcmitype/StillImage" />
        <dc:title></dc:title>
      </cc:Work>
    </rdf:RDF>
  </metadata>
  <g
     inkscape:label="Layer 1"
     inkscape:groupmode="layer"
     id="layer1"
     transform="translate(0,-1004.3621)">
    <rect
       style="fill:#00b4ff;fill-opacity:1"
       id="rect4138"
       width="40.017857"
       height="40.071392"
       x="4"
       y="1008.3621"
       ry="1.0274504" />
    <path
       id="path4723"
       d="m 4.1428571,1009.8213 0,-1.245 1.2421875,0 1.2421875,0 1.2421875,0 1.2421875,0 1.2421879,0 1.242187,0 1.242188,0 1.242187,0 1.242188,0 1.242187,0 1.242188,0 1.242187,0 1.242188,0 1.242187,0 1.242188,0 1.242187,0 1.242188,0 1.242187,0 1.242188,0 1.242187,0 1.242188,0 1.242187,0 1.242188,0 1.242187,0 1.242188,0 1.242187,0 1.242188,0 1.242187,0 1.242188,0 1.242187,0 1.242188,0 1.242187,0 0,1.245 0,1.245 0,1.2449 0,1.245 0,1.245 0,1.245 0,1.2449 0,1.245 0,1.245 0,1.245 0,1.245 0,1.2449 0,1.245 0,1.245 0,1.245 0,1.2449 0,1.245 0,1.245 0,1.245 0,1.245 0,1.2449 0,1.245 0,1.245 0,1.245 0,1.2449 0,1.245 0,1.245 0,1.245 0,1.245 0,1.2449 0,1.245 0,1.245 -1.242187,0 -1.242188,0 -1.242187,0 -1.242188,0 -1.242187,0 -1.242188,0 -1.242187,0 -1.242188,0 -1.242187,0 -1.242188,0 -1.242187,0 -1.242188,0 -1.242187,0 -1.242188,0 -1.242187,0 -1.242188,0 -1.242187,0 -1.242188,0 -1.242187,0 -1.242188,0 -1.242187,0 -1.242188,0 -1.242187,0 -1.242188,0 -1.242187,0 -1.242188,0 -1.242187,0 -1.2421879,0 -1.2421875,0 -1.2421875,0 -1.2421875,0 -1.2421875,0 0,-1.245 0,-1.245 0,-1.2449 0,-1.245 0,-1.245 0,-1.245 0,-1.245 0,-1.2449 0,-1.245 0,-1.245 0,-1.245 0,-1.2449 0,-1.245 0,-1.245 0,-1.245 0,-1.245 0,-1.2449 0,-1.245 0,-1.245 0,-1.245 0,-1.2449 0,-1.245 0,-1.245 0,-1.245 0,-1.245 0,-1.2449 0,-1.245 0,-1.245 0,-1.245 0,-1.2449 0,-1.245 m 11.1796879,36.1043 q 1.242187,0 1.242187,-1.2449 0,-1.245 0,-2.49 0,-1.245 0,-2.49 0,-1.2449 0,-2.4899 0,-1.245 0,-2.49 0,-1.2449 0,-2.4899 0,-1.245 0,-2.49 0,-1.245 0,-2.4899 0,-1.245 1.242188,-1.245 1.242187,0 2.484375,0 1.242187,0 1.242187,-1.245 0,-1.245 0,-2.4899 0,-1.245 0,-2.49 0,-1.245 0,-2.49 0,-1.2449 0,-2.4899 0,-1.245 0,-2.49 0,-1.2449 -1.242187,-1.2449 -1.242188,0 -1.242188,1.2449 0,1.245 0,2.49 0,1.245 0,2.4899 0,1.245 0,2.49 0,1.245 -1.242187,1.245 -1.242188,0 -1.242188,-1.245 0,-1.245 0,-2.49 0,-1.2449 0,-2.4899 0,-1.245 0,-2.49 0,-1.2449 -1.242187,-1.2449 -1.242188,0 -1.242188,1.2449 0,1.245 0,2.49 0,1.245 0,2.4899 0,1.245 0,2.49 0,1.245 -1.242187,1.245 -1.242188,0 -1.242188,-1.245 0,-1.245 0,-2.49 0,-1.2449 0,-2.4899 0,-1.245 0,-2.49 0,-1.2449 -1.242187,-1.2449 -1.2421879,0 -1.2421879,1.2449 0,1.245 0,2.49 0,1.245 0,2.4899 0,1.245 0,2.49 0,1.245 0,2.49 0,1.2449 0,2.4899 0,1.245 1.2421879,1.245 1.242187,0 2.484375,0 1.242187,0 1.242187,1.245 0,1.2449 0,2.4899 0,1.245 0,2.49 0,1.245 0,2.4899 0,1.245 0,2.49 0,1.245 0,2.4899 0,1.245 0,2.49 0,1.245 0,2.49 0,1.2449 1.242188,1.2449 m 17.390625,0 q 1.242187,0 1.242187,-1.2449 0,-1.245 0,-2.49 0,-1.245 0,-2.49 0,-1.2449 0,-2.4899 0,-1.245 0,-2.49 0,-1.2449 0,-2.4899 0,-1.245 0,-2.49 0,-1.245 0,-2.4899 0,-1.245 1.242188,-1.245 1.242187,0 1.242187,-1.245 0,-1.245 1.242188,-1.245 1.242187,0 1.242187,-1.2449 0,-1.245 0,-2.49 0,-1.245 0,-2.49 0,-1.2449 0,-2.4899 0,-1.245 -1.242187,-1.245 -1.242188,0 -1.242188,-1.245 0,-1.2449 -1.242187,-1.2449 -1.242188,0 -2.484375,0 -1.242188,0 -2.484375,0 -1.242188,0 -1.242188,1.2449 0,1.245 -1.242187,1.245 -1.242188,0 -1.242188,1.245 0,1.245 0,2.4899 0,1.245 0,2.49 0,1.245 0,2.49 0,1.2449 1.242188,1.2449 1.242187,0 1.242187,1.245 0,1.245 1.242188,1.245 1.242187,0 1.242187,1.245 0,1.2449 0,2.4899 0,1.245 0,2.49 0,1.245 0,2.4899 0,1.245 0,2.49 0,1.245 0,2.4899 0,1.245 0,2.49 0,1.245 0,2.49 0,1.2449 1.242188,1.2449"
       style="fill:#000000;fill-opacity:0"
       inkscape:connector-curvature="0" />
    <g
       style="opacity:1;fill:url(#linearGradient6974);fill-opacity:1;stroke:none"
       id="g5601"
       clip-path="url(#clipPath6964)"
       transform="translate(9.1071429,0.17857143)">
      <path
         id="path5603"
         transform="translate(0,1004.3621)"
         d="m 10.849609,7.2011719 c -0.828125,0 -1.2421871,0.4142073 -1.2421871,1.2441406 l 0,2.4902345 0,2.490234 0,2.490235 0,2.490234 0,2.488281 c 0,0.579539 0.2075858,0.952071 0.6113281,1.126953 0.09889,0.230041 0.263059,0.394634 0.492188,0.494141 0.09887,0.228261 0.262548,0.391082 0.490234,0.490234 0.09886,0.227023 0.261579,0.391341 0.488281,0.490235 0.09844,0.223584 0.259145,0.385906 0.482422,0.484375 0.09852,0.223954 0.260682,0.383927 0.484375,0.482422 0.09804,0.22187 0.257285,0.382071 0.478516,0.480468 0.0981,0.221028 0.257824,0.380359 0.478515,0.478516 0.09759,0.218469 0.254823,0.376659 0.472657,0.474609 0.09769,0.218928 0.256247,0.376629 0.474609,0.47461 0.0053,0.01164 0.01002,0.02386 0.01563,0.03516 l 0,1.958984 0,2.490235 0,2.490234 0,2.488281 0,2.490235 0,2.490234 c 0,0.579853 0.207083,0.954182 0.611328,1.128906 0.09923,0.229347 0.264936,0.393099 0.494141,0.492188 0.09899,0.227466 0.260993,0.391348 0.488281,0.490234 0.09882,0.226899 0.261744,0.389382 0.488281,0.488281 0.09833,0.224314 0.258767,0.38566 0.482422,0.484376 0.0985,0.224897 0.259967,0.385661 0.484375,0.484374 0.09804,0.221853 0.257285,0.38208 0.478516,0.480469 0.0981,0.22101 0.257824,0.380367 0.478515,0.478516 0.09783,0.218995 0.255934,0.376724 0.47461,0.474609 0.09774,0.218129 0.254796,0.376862 0.472656,0.47461 0.09747,0.215858 0.253075,0.373301 0.46875,0.470703 0.09717,0.214237 0.252879,0.369564 0.466797,0.466797 0.09692,0.213697 0.251759,0.369514 0.464844,0.466796 0.09661,0.212081 0.251554,0.365786 0.46289,0.462891 0.09643,0.210339 0.249254,0.364146 0.458984,0.460938 0.09647,0.209515 0.249789,0.362439 0.458985,0.458984 0.09617,0.207536 0.247861,0.358833 0.455078,0.455078 0.09577,0.205978 0.245772,0.357012 0.451172,0.453125 0.09559,0.205399 0.246506,0.355085 0.451172,0.451172 0.09539,0.203677 0.244189,0.353462 0.447265,0.449219 0.09527,0.201824 0.243768,0.349991 0.445313,0.445312 0.09484,0.200373 0.241631,0.348147 0.441406,0.44336 0.09462,0.199032 0.241016,0.34642 0.439453,0.441406 0.09464,0.198227 0.241544,0.34472 0.439453,0.439453 0.09405,0.195753 0.238432,0.34113 0.433594,0.435547 0.09406,0.19527 0.238749,0.339331 0.433594,0.433594 0.09365,0.193355 0.236858,0.337679 0.429687,0.43164 0.09347,0.191997 0.236156,0.334065 0.427735,0.427735 0.09309,0.190926 0.235561,0.332191 0.425781,0.425781 0.09285,0.189248 0.233209,0.330604 0.421875,0.423828 0.09286,0.188742 0.233544,0.328817 0.421875,0.421875 0.09261,0.186789 0.231375,0.327327 0.417969,0.419922 0.09223,0.184717 0.231438,0.323848 0.416015,0.416016 0.09185,0.183337 0.229087,0.320147 0.41211,0.412109 0.09184,0.183338 0.229086,0.320148 0.412109,0.412109 0.09119,0.180384 0.226259,0.316815 0.40625,0.408203 0.09092,0.179624 0.225242,0.314951 0.404297,0.40625 0.09058,0.178517 0.22458,0.313158 0.402344,0.404297 0.09064,0.177788 0.224943,0.311504 0.402344,0.402344 0.09023,0.175684 0.223065,0.30808 0.398437,0.398438 0.08987,0.174215 0.220682,0.306428 0.394531,0.396484 0.0895,0.172755 0.220265,0.30477 0.392578,0.394531 0.08918,0.17141 0.219681,0.301159 0.390625,0.390625 0.08885,0.170505 0.218834,0.299335 0.388672,0.388672 0.08855,0.169073 0.216305,0.297734 0.384766,0.386719 0.08819,0.167761 0.215741,0.296058 0.382812,0.384765 0.08821,0.166868 0.216253,0.294463 0.382813,0.382813 0.08747,0.163928 0.213382,0.291246 0.376953,0.378906 0.08734,0.163533 0.213835,0.287414 0.376953,0.375 0.08732,0.163195 0.212112,0.287538 0.375,0.375 0.08656,0.160256 0.209234,0.284349 0.369141,0.371094 0.08627,0.159606 0.208118,0.28249 0.367187,0.369141 0.08596,0.158493 0.207318,0.280807 0.365235,0.367187 0.08591,0.157623 0.207914,0.279181 0.365234,0.365234 0.08515,0.155309 0.204596,0.275798 0.359375,0.361329 0.08511,0.154692 0.205019,0.274078 0.359375,0.359374 0.08461,0.152897 0.202938,0.272598 0.355469,0.357422 0.08429,0.151651 0.202195,0.269044 0.353515,0.353516 0.08387,0.150814 0.201371,0.267215 0.351563,0.351562 0.0835,0.14926 0.198915,0.265732 0.347656,0.34961 0.08316,0.148037 0.198182,0.264124 0.345703,0.347656 0.08268,0.146587 0.197775,0.260597 0.34375,0.34375 0.08286,0.146127 0.197747,0.260904 0.34375,0.34375 0.08207,0.143782 0.194403,0.255665 0.337891,0.337891 0.08149,0.142782 0.191919,0.255812 0.333984,0.33789 0.08163,0.14192 0.194131,0.254328 0.335938,0.335938 0.08081,0.139617 0.190752,0.249101 0.330078,0.330078 0.08053,0.139119 0.189504,0.249182 0.328125,0.330078 0.08044,0.138418 0.189996,0.247516 0.328125,0.328125 0.07961,0.136182 0.186575,0.244237 0.322266,0.324219 0.07924,0.134992 0.18581,0.242661 0.320312,0.322265 0.07901,0.134072 0.186619,0.239087 0.320312,0.31836 0.07796,0.132048 0.183375,0.23954 0.314454,0.318359 0,0 0.002,0.002 0.002,0.002 0.07835,0.130877 0.183379,0.236412 0.314453,0.314454 0.07764,0.129677 0.181152,0.23274 0.310547,0.310546 0.07716,0.128879 0.180312,0.232903 0.308593,0.310547 0,0 0.002,0 0.002,0 0.07747,0.128548 0.180005,0.231272 0.308593,0.308594 0.07714,0.126343 0.177682,0.228318 0.304688,0.304687 0.07648,0.124444 0.177638,0.228968 0.302734,0.304688 0.0762,0.12273 0.176927,0.225812 0.300781,0.300781 0.07474,0.119598 0.170796,0.217 0.291016,0.291016 0.07561,0.122585 0.173953,0.223654 0.296875,0.298828 0.07406,0.118797 0.170206,0.215158 0.289063,0.289063 0.07377,0.119106 0.170492,0.214854 0.289062,0.289062 0.07434,0.119297 0.171524,0.216972 0.291016,0.291016 0.07268,0.115048 0.166134,0.208734 0.28125,0.28125 0.07337,0.116918 0.168174,0.211942 0.285156,0.285156 0.07158,0.112213 0.163124,0.205903 0.275391,0.277344 0.07153,0.112904 0.164841,0.203543 0.277343,0.27539 0.07197,0.113264 0.164059,0.207444 0.277344,0.279297 0.07141,0.110547 0.162151,0.202853 0.273438,0.273438 0.07068,0.108714 0.160089,0.199661 0.269531,0.269531 0.06939,0.106618 0.156973,0.194445 0.263672,0.263672 0.0693,0.107274 0.156825,0.195981 0.263672,0.265625 0.06899,0.106306 0.157673,0.192501 0.263671,0.261719 0.06838,0.105072 0.155147,0.191007 0.259766,0.259765 0.06781,0.103628 0.152653,0.18966 0.25586,0.257813 0.06822,0.103883 0.153914,0.191634 0.257812,0.259765 0.06652,0.09964 0.150229,0.181733 0.25,0.248047 0.06645,0.100421 0.150006,0.183192 0.25,0.25 0.06615,0.09944 0.148878,0.181704 0.248047,0.248047 0.06537,0.09764 0.146763,0.178572 0.244141,0.244141 0.06508,0.09721 0.145386,0.178722 0.242187,0.24414 0.06447,0.09582 0.144814,0.175428 0.240234,0.240235 0.06369,0.09404 0.142678,0.172316 0.236329,0.236328 0.06369,0.09404 0.142677,0.172316 0.236328,0.236328 0.06289,0.09227 0.140534,0.169213 0.232422,0.232422 0.06225,0.09089 0.138018,0.167886 0.228515,0.230469 0.06245,0.09085 0.139719,0.167984 0.230469,0.230468 0.06187,0.08887 0.137323,0.165119 0.226562,0.226563 0.06015,0.08586 0.132919,0.158625 0.21875,0.21875 0.06105,0.08769 0.134963,0.163622 0.222657,0.224609 0.06004,0.08523 0.13329,0.157043 0.21875,0.216797 0.05873,0.08293 0.12999,0.154186 0.21289,0.212891 0.05848,0.08294 0.128366,0.154089 0.210938,0.21289 0.05898,0.08335 0.131464,0.153991 0.214843,0.212891 0.05715,0.07987 0.125314,0.147874 0.205079,0.205078 0.05739,0.08038 0.124821,0.151518 0.205078,0.208984 0.05647,0.07844 0.124736,0.144701 0.203125,0.201172 0.05635,0.07814 0.123033,0.146818 0.201172,0.203125 0.0556,0.07634 0.122656,0.14194 0.199218,0.197266 0.05421,0.07423 0.11733,0.139045 0.191407,0.193359 0.05475,0.07518 0.120227,0.140513 0.195312,0.195313 0.05354,0.07288 0.116656,0.135867 0.189453,0.189453 0.053,0.07215 0.11563,0.134262 0.1875,0.1875 0.05322,0.07216 0.115351,0.136271 0.1875,0.189453 0.05154,0.06902 0.112589,0.128215 0.181641,0.179688 0.05144,0.06913 0.110734,0.130059 0.179687,0.18164 0.05069,0.06788 0.110109,0.126827 0.177735,0.177734 0.05066,0.06759 0.110234,0.127025 0.177734,0.177735 0.0494,0.06531 0.106626,0.122448 0.171875,0.171875 0.04885,0.06459 0.105573,0.120869 0.169922,0.169922 0.04854,0.06418 0.104124,0.121082 0.167969,0.169922 0.04762,0.06252 0.103788,0.116187 0.166015,0.164062 0.04788,0.06269 0.103415,0.118086 0.166016,0.166016 0.04679,0.0605 0.0995,0.115504 0.160156,0.162109 0.04557,0.05872 0.09758,0.110662 0.15625,0.15625 0.04549,0.0588 0.09766,0.11058 0.15625,0.15625 0.04453,0.05719 0.09535,0.107642 0.152344,0.152344 0.04421,0.05679 0.09389,0.107869 0.150391,0.152344 0.04394,0.05607 0.09441,0.106398 0.15039,0.15039 0.04259,0.05383 0.09074,0.101928 0.144531,0.144531 0.04226,0.05359 0.0912,0.100079 0.144532,0.142579 0.04184,0.05273 0.08801,0.100641 0.140625,0.142578 0.04124,0.05165 0.08704,0.09939 0.138672,0.140625 0.03979,0.04949 0.08537,0.09295 0.134765,0.132812 0.03972,0.04957 0.08349,0.09482 0.132813,0.134766 0.03923,0.04878 0.08426,0.09143 0.132812,0.130859 0.03819,0.04723 0.07997,0.09048 0.126953,0.128907 0.03842,0.04735 0.08163,0.09044 0.128907,0.128906 0.03695,0.04498 0.07801,0.08617 0.123047,0.123047 0.03614,0.04399 0.07526,0.08485 0.11914,0.121093 0.03559,0.04327 0.07606,0.08142 0.119141,0.117188 0.03506,0.04252 0.07292,0.08194 0.115234,0.117187 0.03455,0.04175 0.07368,0.07856 0.115235,0.113282 0.03396,0.04083 0.07062,0.0792 0.111328,0.113281 0.0327,0.03902 0.06853,0.07461 0.107422,0.107422 0.03262,0.03908 0.06861,0.07455 0.107421,0.107422 0.03164,0.03751 0.06612,0.07178 0.103516,0.103515 0.03125,0.03698 0.0647,0.07215 0.101563,0.103516 0.02996,0.03518 0.06259,0.0676 0.09766,0.09766 0.02996,0.03518 0.06259,0.0676 0.09766,0.09766 0.02887,0.03369 0.06016,0.06478 0.09375,0.09375 0.02831,0.03297 0.05897,0.06336 0.0918,0.0918 0.02773,0.0321 0.0578,0.06206 0.08984,0.08984 0.0269,0.03094 0.05501,0.06099 0.08594,0.08789 0.02609,0.0299 0.05412,0.05786 0.08398,0.08398 0.02488,0.02836 0.05179,0.05514 0.08008,0.08008 0.02495,0.02847 0.05169,0.05505 0.08008,0.08008 0.02383,0.02703 0.04922,0.05227 0.07617,0.07617 0.02345,0.02655 0.04776,0.05264 0.07422,0.07617 0.02207,0.02478 0.0456,0.04818 0.07031,0.07031 0.0218,0.02448 0.04593,0.04646 0.07031,0.06836 0.02123,0.02378 0.04274,0.04703 0.06641,0.06836 0.02027,0.0226 0.04196,0.04407 0.06445,0.06445 0.01978,0.02193 0.04063,0.04267 0.0625,0.0625 0.01862,0.02052 0.03813,0.03992 0.05859,0.05859 0.01824,0.02008 0.03663,0.04029 0.05664,0.05859 0.01714,0.01871 0.036,0.03558 0.05469,0.05273 0.01685,0.01844 0.03438,0.0358 0.05273,0.05273 0.01568,0.01704 0.03186,0.03307 0.04883,0.04883 0.01476,0.01597 0.02902,0.03205 0.04492,0.04687 0.01497,0.01622 0.03073,0.03183 0.04687,0.04687 0.01321,0.01414 0.0269,0.02778 0.04102,0.04102 0.01287,0.01377 0.02534,0.0281 0.03906,0.04102 0.01195,0.01275 0.02442,0.0251 0.03711,0.03711 0.01134,0.01202 0.02316,0.02379 0.03516,0.03516 0.01013,0.01067 0.0206,0.0211 0.03125,0.03125 0.0095,0.01001 0.01934,0.01975 0.0293,0.0293 0.0089,0.0094 0.01801,0.01839 0.02734,0.02734 0.0083,0.0087 0.01676,0.01707 0.02539,0.02539 0.0073,0.0076 0.01389,0.01608 0.02148,0.02344 0.0064,0.0066 0.01295,0.01312 0.01953,0.01953 0.0057,0.0059 0.01167,0.01182 0.01758,0.01758 0.0045,0.0046 0.0091,0.0091 0.01367,0.01367 0.0042,0.0043 0.0075,0.0095 0.01172,0.01367 0.0032,0.0032 0.0066,0.0066 0.0098,0.0098 0.0025,0.0026 0.0052,0.0053 0.0078,0.0078 0.0013,0.0013 0.0046,0.0046 0.0059,0.0059 0,0 0.002,0.002 0.002,0.002 0.05078,0.05026 0.106837,0.09293 0.169922,0.130859 0.194729,0.118657 0.448592,0.179688 0.761719,0.179688 0.828124,0 1.242187,-0.41616 1.242187,-1.246094 l 0,-2.488281 0,-2.490234 0,-2.490235 0,-2.490234 0,-2.490234 0,-2.490235 0,-2.490234 c 0,-0.83 0.414062,-1.244141 1.242188,-1.244141 l 2.484375,0 c 0.828124,0 1.242187,-0.41414 1.242187,-1.24414 l 0,-2.490235 0,-2.490234 0,-2.490235 0,-2.490234 0,-2.490234 c 0,-0.31379 -0.06131,-0.56657 -0.179687,-0.761719 -0.03786,-0.06323 -0.08265,-0.122927 -0.132813,-0.173828 0,0 -0.002,-0.002 -0.002,-0.002 -0.0023,-0.0023 -0.0055,-0.0036 -0.0078,-0.0059 0,0 -0.002,-0.002 -0.002,-0.002 0,0 -0.002,0 -0.002,0 -0.0035,-0.0036 -0.0062,-0.0082 -0.0098,-0.01172 -0.0042,-0.0042 -0.0094,-0.0076 -0.01367,-0.01172 -0.0048,-0.0049 -0.0088,-0.01084 -0.01367,-0.01563 -0.0044,-0.0046 -0.0091,-0.0092 -0.01367,-0.01367 -0.0086,-0.009 -0.01838,-0.0168 -0.02734,-0.02539 -0.0061,-0.0063 -0.01322,-0.01148 -0.01953,-0.01758 -0.0083,-0.0087 -0.01672,-0.01707 -0.02539,-0.02539 -0.0089,-0.0094 -0.01801,-0.01839 -0.02734,-0.02734 -0.0096,-0.01001 -0.01928,-0.01975 -0.0293,-0.0293 -0.01051,-0.01108 -0.02213,-0.02074 -0.0332,-0.03125 -0.01049,-0.0111 -0.0202,-0.02267 -0.03125,-0.0332 -0.01386,-0.01484 -0.02812,-0.02913 -0.04297,-0.04297 -0.01174,-0.01238 -0.02466,-0.02348 -0.03711,-0.03516 -0.01388,-0.01486 -0.0281,-0.02911 -0.04297,-0.04297 -0.01413,-0.01514 -0.02781,-0.03082 -0.04297,-0.04492 -0.01431,-0.01545 -0.02955,-0.03054 -0.04492,-0.04492 -0.01652,-0.01802 -0.03477,-0.0342 -0.05273,-0.05078 -0.01751,-0.01904 -0.03557,-0.03726 -0.05469,-0.05469 -0.01655,-0.01793 -0.03475,-0.03428 -0.05273,-0.05078 -0.01836,-0.02009 -0.0365,-0.04028 -0.05664,-0.05859 -0.01888,-0.02072 -0.03977,-0.03977 -0.06055,-0.05859 -0.01919,-0.02113 -0.03939,-0.04138 -0.06055,-0.06055 -0.02038,-0.0226 -0.04184,-0.04408 -0.06445,-0.06445 -0.02149,-0.02395 -0.04438,-0.0469 -0.06836,-0.06836 -0.02183,-0.02433 -0.04591,-0.0466 -0.07031,-0.06836 -0.0224,-0.02505 -0.0452,-0.04993 -0.07031,-0.07227 -0.023,-0.02583 -0.04834,-0.04931 -0.07422,-0.07227 -0.02439,-0.02761 -0.05048,-0.05378 -0.07813,-0.07813 -0.02439,-0.02761 -0.05048,-0.05378 -0.07813,-0.07813 -0.02498,-0.02848 -0.05166,-0.05504 -0.08008,-0.08008 -0.02727,-0.0314 -0.05647,-0.06065 -0.08789,-0.08789 -0.02614,-0.02983 -0.05407,-0.05794 -0.08398,-0.08398 -0.02691,-0.03109 -0.05693,-0.05891 -0.08789,-0.08594 -0.02974,-0.03478 -0.06095,-0.0679 -0.0957,-0.09766 -0.02865,-0.03304 -0.06052,-0.06335 -0.09375,-0.0918 -0.03001,-0.03496 -0.06256,-0.0678 -0.09766,-0.09766 -0.02975,-0.03465 -0.06291,-0.06606 -0.09766,-0.0957 -0.03145,-0.03703 -0.06446,-0.07215 -0.101563,-0.103516 -0.03098,-0.03654 -0.06509,-0.07053 -0.101562,-0.101563 -0.03361,-0.04005 -0.07118,-0.07587 -0.111328,-0.109375 -0.03243,-0.03838 -0.067,-0.0751 -0.105469,-0.107422 -0.03412,-0.04078 -0.07241,-0.07732 -0.113281,-0.111328 -0.03487,-0.04178 -0.07329,-0.08055 -0.115235,-0.115234 -0.03487,-0.04178 -0.07328,-0.08055 -0.115234,-0.115234 -0.03591,-0.0433 -0.07567,-0.08342 -0.119141,-0.119141 -0.0357,-0.04314 -0.07595,-0.08155 -0.11914,-0.117187 -0.0375,-0.04599 -0.07911,-0.08742 -0.125,-0.125 -0.03807,-0.0467 -0.08022,-0.08893 -0.126953,-0.126954 -0.03834,-0.04708 -0.08178,-0.08868 -0.128907,-0.126953 -0.03981,-0.04924 -0.08345,-0.0951 -0.132812,-0.134765 -0.03957,-0.04877 -0.08385,-0.09347 -0.132813,-0.132813 -0.04,-0.04961 -0.08509,-0.09485 -0.134765,-0.134765 -0.04143,-0.05178 -0.08873,-0.09738 -0.140625,-0.138672 -0.04124,-0.05165 -0.08704,-0.0994 -0.138672,-0.140625 -0.04292,-0.05415 -0.09222,-0.101757 -0.146485,-0.144532 -0.04255,-0.05362 -0.09084,-0.102077 -0.144531,-0.144531 -0.0442,-0.05615 -0.09405,-0.106401 -0.15039,-0.15039 -0.04441,-0.05632 -0.09571,-0.106322 -0.152344,-0.150391 -0.04489,-0.05712 -0.09492,-0.109736 -0.152344,-0.154297 -0.04482,-0.05719 -0.09694,-0.107716 -0.154297,-0.152344 -0.04604,-0.05961 -0.09872,-0.112065 -0.158203,-0.158203 -0.04676,-0.06074 -0.09948,-0.115321 -0.160156,-0.162109 -0.04725,-0.06154 -0.102563,-0.114856 -0.164063,-0.16211 -0.04848,-0.06357 -0.10436,-0.119553 -0.167968,-0.167968 -0.04878,-0.06364 -0.105924,-0.119585 -0.169922,-0.167969 -0.04923,-0.06446 -0.105116,-0.123016 -0.169922,-0.171875 -0.04971,-0.06527 -0.108194,-0.122567 -0.173828,-0.171875 -0.04995,-0.06604 -0.107676,-0.12403 -0.173828,-0.173828 -0.05152,-0.06873 -0.112706,-0.128409 -0.181641,-0.179688 -0.0516,-0.06866 -0.110666,-0.130441 -0.179687,-0.18164 -0.05231,-0.06979 -0.113326,-0.131799 -0.183594,-0.183594 -0.05209,-0.06975 -0.113624,-0.129811 -0.183594,-0.181641 -0.05407,-0.07331 -0.117796,-0.137682 -0.191406,-0.191406 -0.05317,-0.07164 -0.115563,-0.134663 -0.1875,-0.1875 -0.05453,-0.07457 -0.118757,-0.138911 -0.19336,-0.193359 -0.05526,-0.0758 -0.121313,-0.140248 -0.197265,-0.195313 -0.05546,-0.07625 -0.120905,-0.141958 -0.197266,-0.197266 -0.0561,-0.07762 -0.123531,-0.143183 -0.201172,-0.199218 -0.05591,-0.07781 -0.121767,-0.144947 -0.199219,-0.201172 -0.05849,-0.08233 -0.128566,-0.152542 -0.210937,-0.210938 -0.05719,-0.07931 -0.125445,-0.148261 -0.205078,-0.205078 -0.05879,-0.08275 -0.129976,-0.152366 -0.212891,-0.210937 -0.05822,-0.08198 -0.127087,-0.152683 -0.208984,-0.210938 -0.06047,-0.08621 -0.134323,-0.158506 -0.220703,-0.21875 -0.05938,-0.08368 -0.130817,-0.155865 -0.214844,-0.214843 -0.06087,-0.0871 -0.133465,-0.161986 -0.220703,-0.222657 -0.06116,-0.08746 -0.136849,-0.159903 -0.22461,-0.220703 -0.06069,-0.08733 -0.133628,-0.161773 -0.220703,-0.222656 -0.06309,-0.09203 -0.140355,-0.169437 -0.232421,-0.232422 -0.06237,-0.09009 -0.138149,-0.166481 -0.228516,-0.228516 -0.06379,-0.0928 -0.14301,-0.171171 -0.236328,-0.234375 -0.06332,-0.09186 -0.140104,-0.169628 -0.232422,-0.232421 -0.06474,-0.09513 -0.144714,-0.175956 -0.240234,-0.240235 -0.06447,-0.09412 -0.143524,-0.174515 -0.238282,-0.238281 -0.06522,-0.09638 -0.145513,-0.177326 -0.242187,-0.242188 -0.06528,-0.09701 -0.147144,-0.176965 -0.244141,-0.242187 -0.06618,-0.09944 -0.148827,-0.181719 -0.248047,-0.248047 -0.06722,-0.101049 -0.150632,-0.187033 -0.251953,-0.253906 -0.06706,-0.100393 -0.151116,-0.183455 -0.251953,-0.25 -0.06725,-0.10162 -0.152312,-0.184753 -0.253906,-0.251953 -0.06835,-0.104404 -0.15352,-0.191383 -0.257813,-0.259766 -0.0693,-0.105528 -0.157555,-0.193084 -0.263672,-0.261719 -0.06837,-0.103811 -0.15374,-0.189783 -0.257812,-0.257812 -0.06961,-0.107715 -0.158146,-0.195863 -0.265625,-0.265625 -0.07091,-0.109766 -0.161264,-0.201118 -0.271485,-0.271485 -0.06889,-0.105845 -0.156061,-0.192724 -0.261718,-0.261718 -0.07139,-0.113042 -0.163041,-0.205355 -0.275391,-0.277344 -0.07233,-0.11338 -0.165428,-0.205591 -0.279297,-0.277344 -0.07062,-0.109991 -0.161575,-0.198913 -0.271484,-0.269531 -0.07347,-0.117538 -0.167745,-0.213607 -0.285156,-0.287109 -0.07313,-0.114675 -0.1676,-0.209145 -0.283204,-0.28125 -0.07374,-0.116062 -0.168026,-0.212577 -0.285156,-0.285157 -0.07317,-0.11583 -0.167014,-0.210486 -0.283203,-0.283203 -0.07483,-0.120088 -0.172382,-0.218736 -0.292969,-0.292969 -0.07414,-0.118214 -0.170357,-0.215506 -0.289062,-0.289062 -0.07686,-0.124586 -0.176999,-0.225175 -0.302734,-0.300781 -0.07483,-0.11894 -0.17097,-0.215439 -0.291016,-0.289063 -0.0759,-0.124273 -0.17468,-0.224866 -0.298828,-0.300781 -0.07528,-0.12362 -0.175907,-0.221001 -0.298828,-0.296875 -0.0762,-0.127272 -0.178635,-0.22738 -0.304688,-0.304688 -7.46e-4,-0.0012 -0.0012,-0.0027 -0.002,-0.0039 -0.0012,-7.58e-4 -0.0027,-0.0012 -0.0039,-0.002 -0.07714,-0.126343 -0.179635,-0.230271 -0.306641,-0.306641 -0.07731,-0.12745 -0.178839,-0.231745 -0.30664,-0.308593 0,0 -0.002,-0.002 -0.002,-0.002 -0.07738,-0.127936 -0.182396,-0.231535 -0.310546,-0.308593 0,0 0,-0.002 0,-0.002 -0.07865,-0.131365 -0.184646,-0.236319 -0.316407,-0.314454 -0.07866,-0.131384 -0.184618,-0.236314 -0.316406,-0.314453 -0.07902,-0.133292 -0.185061,-0.239467 -0.318359,-0.318359 -0.07944,-0.134815 -0.187542,-0.2409 -0.322266,-0.320312 -0.08023,-0.136714 -0.189267,-0.246259 -0.326172,-0.326172 -0.08024,-0.136731 -0.189235,-0.244305 -0.326172,-0.324219 -0.08074,-0.138955 -0.191218,-0.247419 -0.330078,-0.328125 -0.08154,-0.140904 -0.192862,-0.252796 -0.333984,-0.333984 -0.08123,-0.140343 -0.191676,-0.25094 -0.332032,-0.332032 -0.08203,-0.142622 -0.195082,-0.256176 -0.33789,-0.33789 -0.08203,-0.142623 -0.195083,-0.256177 -0.337891,-0.337891 -0.0829,-0.145536 -0.198012,-0.259237 -0.34375,-0.341797 -0.08324,-0.14616 -0.199099,-0.261096 -0.345703,-0.34375 -0.08328,-0.14678 -0.198686,-0.260845 -0.345703,-0.34375 -0.08372,-0.149043 -0.200645,-0.263998 -0.349609,-0.347656 -0.0845,-0.151127 -0.202155,-0.269392 -0.353516,-0.353516 -0.08448,-0.151002 -0.202267,-0.267478 -0.353516,-0.351562 -0.08503,-0.153518 -0.203876,-0.272574 -0.357422,-0.357422 -0.08502,-0.153518 -0.203876,-0.272574 -0.357421,-0.357422 -0.08582,-0.155978 -0.207063,-0.277858 -0.363282,-0.363281 -0.08579,-0.155824 -0.207199,-0.275952 -0.363281,-0.361328 -0.08618,-0.158132 -0.209128,-0.279135 -0.367187,-0.365235 -0.08624,-0.159003 -0.208531,-0.280762 -0.367188,-0.367187 -0.08696,-0.161904 -0.211517,-0.28588 -0.373047,-0.373047 -0.08728,-0.161903 -0.212955,-0.286074 -0.375,-0.373047 -0.08772,-0.163397 -0.213304,-0.289653 -0.376953,-0.376953 -0.08794,-0.16441 -0.214295,-0.289387 -0.378906,-0.376953 -0.08817,-0.165941 -0.21493,-0.292844 -0.380859,-0.38086 -0.08848,-0.167381 -0.217452,-0.294433 -0.384766,-0.382812 -0.08879,-0.168649 -0.218136,-0.296089 -0.386719,-0.384766 -0.08951,-0.17092 -0.219442,-0.301552 -0.390625,-0.390625 -0.08948,-0.170671 -0.219661,-0.299667 -0.390625,-0.388672 -0.08992,-0.173289 -0.22119,-0.304843 -0.394531,-0.394531 -0.08992,-0.17329 -0.221191,-0.304843 -0.394531,-0.394531 -0.09052,-0.17572 -0.224516,-0.308256 -0.400391,-0.398438 -0.09062,-0.176441 -0.223894,-0.310013 -0.400391,-0.40039 -0.0909,-0.17808 -0.226275,-0.311571 -0.404297,-0.402344 -0.09118,-0.179606 -0.226779,-0.313173 -0.40625,-0.404297 -0.09149,-0.181631 -0.226888,-0.31854 -0.408203,-0.410156 -0.09188,-0.182106 -0.229842,-0.318634 -0.412109,-0.410156 -0.09227,-0.183652 -0.230129,-0.322277 -0.414062,-0.414063 -0.0924,-0.184561 -0.231256,-0.322062 -0.416016,-0.414062 -0.09287,-0.186795 -0.232884,-0.32555 -0.419922,-0.417969 -0.09287,-0.187314 -0.232538,-0.327332 -0.419922,-0.419922 -0.09312,-0.188985 -0.234892,-0.328917 -0.423828,-0.421875 -0.09379,-0.191453 -0.235987,-0.334456 -0.427734,-0.427734 -0.09374,-0.191072 -0.23632,-0.332594 -0.427735,-0.425782 -0.09409,-0.193792 -0.237769,-0.337848 -0.43164,-0.43164 -0.09409,-0.193793 -0.23777,-0.337849 -0.431641,-0.431641 -0.09462,-0.196432 -0.240893,-0.341328 -0.4375,-0.435547 -0.09467,-0.197058 -0.240358,-0.343134 -0.4375,-0.4375 -0.0949,-0.198759 -0.242688,-0.344744 -0.441406,-0.439453 -0.09516,-0.200544 -0.242917,-0.348324 -0.44336,-0.443359 -0.0956,-0.202138 -0.244935,-0.350138 -0.447265,-0.445313 -0.09595,-0.203261 -0.245477,-0.353983 -0.449219,-0.449219 -0.0962,-0.203791 -0.246616,-0.354017 -0.451172,-0.449218 -0.09601,-0.204993 -0.246084,-0.355498 -0.451172,-0.451172 -0.09649,-0.207748 -0.249096,-0.359015 -0.457031,-0.455078 -0.09651,-0.208702 -0.248363,-0.36073 -0.457031,-0.457032 -0.0967,-0.210447 -0.250658,-0.362364 -0.460938,-0.458984 -0.09713,-0.212518 -0.252279,-0.368013 -0.464844,-0.464844 -0.09726,-0.212603 -0.251983,-0.366138 -0.464843,-0.46289 -0.09741,-0.214778 -0.253997,-0.369615 -0.46875,-0.466797 -0.09769,-0.216825 -0.253917,-0.373232 -0.470703,-0.470703 -0.09777,-0.217692 -0.255079,-0.375035 -0.472657,-0.472656 -0.09816,-0.219274 -0.25709,-0.376913 -0.476562,-0.47461 -0.09846,-0.220911 -0.257267,-0.380666 -0.478516,-0.478516 -0.0986,-0.221471 -0.258536,-0.3826 -0.480469,-0.480468 C 24.252871,10.023746 24.091914,9.86362 23.869141,9.765625 23.770366,9.5406559 23.607768,9.3797631 23.382812,9.28125 23.283756,9.0546347 23.121275,8.8916179 22.894531,8.7929688 22.795235,8.5658067 22.631897,8.4032652 22.404297,8.3046875 22.304721,8.0745722 22.140589,7.9095195 21.910156,7.8105469 21.7353,7.4072305 21.364403,7.2011719 20.787109,7.2011719 c -0.828125,0 -1.242187,0.4142073 -1.242187,1.2441406 l 0,1.8886715 c -0.04928,-0.03371 -0.104529,-0.0625 -0.16211,-0.08789 C 19.284121,10.023746 19.123164,9.86362 18.900391,9.765625 18.801616,9.5406559 18.639018,9.3797631 18.414062,9.28125 18.315006,9.0546347 18.152525,8.8916179 17.925781,8.7929688 17.826485,8.5658067 17.663147,8.4032652 17.435547,8.3046875 17.335971,8.0745722 17.171839,7.9095195 16.941406,7.8105469 16.76655,7.4072305 16.395653,7.2011719 15.818359,7.2011719 c -0.828125,0 -1.242187,0.4142073 -1.242187,1.2441406 l 0,1.8886715 c -0.04928,-0.03371 -0.104529,-0.0625 -0.16211,-0.08789 C 14.315371,10.023746 14.154414,9.86362 13.931641,9.765625 13.832866,9.5406559 13.670268,9.3797631 13.445312,9.28125 13.346256,9.0546347 13.183775,8.8916179 12.957031,8.7929688 12.857735,8.5658067 12.694397,8.4032652 12.466797,8.3046875 12.367221,8.0745722 12.203089,7.9095195 11.972656,7.8105469 11.7978,7.4072305 11.426903,7.2011719 10.849609,7.2011719 Z"
         style="fill:url(#linearGradient6976);fill-opacity:1;stroke:none;opacity:1"
         inkscape:connector-curvature="0" />
    </g>
    <path
       id="path4725"
       d="m 18.21875,1012.4898 q 0,-1.2449 1.242188,-1.2449 1.242187,0 1.242187,1.2449 0,1.245 0,2.49 0,1.245 0,2.4899 0,1.245 0,2.49 0,1.245 1.242188,1.245 1.242187,0 1.242187,-1.245 0,-1.245 0,-2.49 0,-1.2449 0,-2.4899 0,-1.245 0,-2.49 0,-1.2449 1.242188,-1.2449 1.242187,0 1.242187,1.2449 0,1.245 0,2.49 0,1.245 0,2.4899 0,1.245 0,2.49 0,1.245 1.242188,1.245 1.242187,0 1.242187,-1.245 0,-1.245 0,-2.49 0,-1.2449 0,-2.4899 0,-1.245 0,-2.49 0,-1.2449 1.242188,-1.2449 1.242187,0 1.242187,1.2449 0,1.245 0,2.49 0,1.245 0,2.4899 0,1.245 0,2.49 0,1.245 0,2.49 0,1.2449 0,2.4899 0,1.245 -1.242187,1.245 -1.242188,0 -2.484375,0 -1.242188,0 -1.242188,1.245 0,1.2449 0,2.4899 0,1.245 0,2.49 0,1.245 0,2.4899 0,1.245 0,2.49 0,1.245 0,2.4899 0,1.245 0,2.49 0,1.245 0,2.49 0,1.2449 -1.242187,1.2449 -1.242188,0 -1.242188,-1.2449 0,-1.245 0,-2.49 0,-1.245 0,-2.49 0,-1.2449 0,-2.4899 0,-1.245 0,-2.49 0,-1.2449 0,-2.4899 0,-1.245 0,-2.49 0,-1.245 0,-2.4899 0,-1.245 -1.242187,-1.245 -1.242188,0 -2.484375,0 -1.242188,0 -1.242188,-1.245 0,-1.245 0,-2.4899 0,-1.245 0,-2.49 0,-1.245 0,-2.49 0,-1.2449 0,-2.4899 0,-1.245 0,-2.49"
       style="fill:#ffffff;fill-opacity:1"
       inkscape:connector-curvature="0" />
    <path
       inkscape:connector-curvature="0"
       style="fill:#ffffff;fill-opacity:1"
       d="m 59.111607,1062.3112 q 0,-1.2449 1.242188,-1.2449 1.242187,0 1.242187,1.2449 0,1.245 0,2.49 0,1.245 0,2.4899 0,1.245 0,2.49 0,1.245 1.242188,1.245 1.242187,0 1.242187,-1.245 0,-1.245 0,-2.49 0,-1.2449 0,-2.4899 0,-1.245 0,-2.49 0,-1.2449 1.242188,-1.2449 1.242187,0 1.242187,1.2449 0,1.245 0,2.49 0,1.245 0,2.4899 0,1.245 0,2.49 0,1.245 1.242188,1.245 1.242187,0 1.242187,-1.245 0,-1.245 0,-2.49 0,-1.2449 0,-2.4899 0,-1.245 0,-2.49 0,-1.2449 1.242188,-1.2449 1.242187,0 1.242187,1.2449 0,1.245 0,2.49 0,1.245 0,2.4899 0,1.245 0,2.49 0,1.245 0,2.49 0,1.2449 0,2.4899 0,1.245 -1.242187,1.245 -1.242188,0 -2.484375,0 -1.242188,0 -1.242188,1.245 0,1.2449 0,2.4899 0,1.245 0,2.49 0,1.245 0,2.4899 0,1.245 0,2.49 0,1.245 0,2.4899 0,1.245 0,2.49 0,1.245 0,2.49 0,1.2449 -1.242187,1.2449 -1.242188,0 -1.242188,-1.2449 0,-1.245 0,-2.49 0,-1.245 0,-2.49 0,-1.2449 0,-2.4899 0,-1.245 0,-2.49 0,-1.2449 0,-2.4899 0,-1.245 0,-2.49 0,-1.245 0,-2.4899 0,-1.245 -1.242187,-1.245 -1.242188,0 -2.484375,0 -1.242188,0 -1.242188,-1.245 0,-1.245 0,-2.4899 0,-1.245 0,-2.49 0,-1.245 0,-2.49 0,-1.2449 0,-2.4899 0,-1.245 0,-2.49"
       id="path5588" />
    <path
       inkscape:connector-curvature="0"
       style="fill:#ffffff;fill-opacity:1"
       d="m 78.986607,1062.3112 q 0,-1.2449 1.242188,-1.2449 1.242187,0 2.484375,0 1.242187,0 2.484375,0 1.242187,0 1.242187,1.2449 0,1.245 1.242188,1.245 1.242187,0 1.242187,1.245 0,1.245 0,2.4899 0,1.245 0,2.49 0,1.245 0,2.49 0,1.2449 -1.242187,1.2449 -1.242188,0 -1.242188,1.245 0,1.245 -1.242187,1.245 -1.242188,0 -1.242188,1.245 0,1.2449 0,2.4899 0,1.245 0,2.49 0,1.245 0,2.4899 0,1.245 0,2.49 0,1.245 0,2.4899 0,1.245 0,2.49 0,1.245 0,2.49 0,1.2449 -1.242187,1.2449 -1.242188,0 -1.242188,-1.2449 0,-1.245 0,-2.49 0,-1.245 0,-2.49 0,-1.2449 0,-2.4899 0,-1.245 0,-2.49 0,-1.2449 0,-2.4899 0,-1.245 0,-2.49 0,-1.245 0,-2.4899 0,-1.245 -1.242187,-1.245 -1.242188,0 -1.242188,-1.245 0,-1.245 -1.242187,-1.245 -1.242188,0 -1.242188,-1.2449 0,-1.245 0,-2.49 0,-1.245 0,-2.49 0,-1.2449 0,-2.4899 0,-1.245 1.242188,-1.245 1.242187,0 1.242187,-1.245"
       id="path6238" />
  </g>
</svg>
